<svg width="61" height="54" viewBox="0 0 61 54" fill="none" xmlns="http://www.w3.org/2000/svg">
<path d="M12.5353 24.7613C8.29536 20.0226 3.07846 26.7358 1 30.6848V53.5601H59.5171V3.24581C59.0551 5.96646 56.5603 9.77537 50.2771 3.24581C43.994 -3.28375 40.2672 5.96646 39.1892 11.4078C38.1112 14.7957 34.9696 19.5389 31.0272 11.4078C26.0992 1.2438 24.148 22.6213 22.6142 24.7613C21.0804 26.9014 17.8352 30.6848 12.5353 24.7613Z" fill="url(#paint0_linear_329_3416)"/>
<path d="M1 30.6848C3.07846 26.7358 8.29536 20.0226 12.5353 24.7613C17.8352 30.6848 21.0804 26.9014 22.6142 24.7613C24.148 22.6213 26.0992 1.2438 31.0272 11.4078C34.9696 19.5389 38.1112 14.7957 39.1892 11.4078C40.2672 5.96646 43.994 -3.28375 50.2771 3.24581C56.5603 9.77537 59.0551 5.96646 59.5171 3.24581" stroke="#219653" stroke-width="2" stroke-linecap="round"/>
<defs>
<linearGradient id="paint0_linear_329_3416" x1="30.2585" y1="1" x2="30.2585" y2="53.5601" gradientUnits="userSpaceOnUse">
<stop stop-color="#95CD41" stop-opacity="0.55"/>
<stop offset="1" stop-color="#D9D9D9" stop-opacity="0"/>
</linearGradient>
</defs>
</svg>
