<svg width="42" height="37" viewBox="0 0 42 37" fill="none" xmlns="http://www.w3.org/2000/svg">
<path d="M1 3.52657C2.0214 4.72442 4.61077 6.80977 6.7971 5.56835C9.53002 4.01658 12.0973 0.17788 13.8364 1.15797C15.5756 2.13807 13.9193 8.10031 17.5631 8.67203C21.207 9.24375 23.7743 0.0145416 26.8385 4.09826C29.9027 8.18198 31.7246 6.05845 35.0373 7.36524C37.6874 8.41067 40.1166 11.2312 41 12.5107" stroke="#EA5C2B" stroke-width="2" stroke-linecap="round"/>
<path d="M6.7971 5.56835C4.61077 6.80977 2.0214 4.72442 1 3.52657V36.9281H41V12.5107C40.1166 11.2312 37.6874 8.41067 35.0373 7.36524C31.7246 6.05845 29.9027 8.18198 26.8385 4.09826C23.7743 0.0145416 21.207 9.24375 17.5631 8.67203C13.9193 8.10031 15.5756 2.13807 13.8364 1.15797C12.0973 0.17788 9.53002 4.01658 6.7971 5.56835Z" fill="url(#paint0_linear_326_3288)"/>
<defs>
<linearGradient id="paint0_linear_326_3288" x1="21" y1="1" x2="21" y2="37.4983" gradientUnits="userSpaceOnUse">
<stop stop-color="#EA5C2B" stop-opacity="0.75"/>
<stop offset="1" stop-color="#D9D9D9" stop-opacity="0"/>
</linearGradient>
</defs>
</svg>
